<?xml version="1.0" encoding="UTF-8" standalone="no"?>
<!-- Created with Inkscape (http://www.inkscape.org/) -->

<svg
   width="283.51038mm"
   height="43.33831mm"
   viewBox="0 0 1071.5353 163.79833"
   version="1.1"
   id="svg1"
   xml:space="preserve"
   xmlns="http://www.w3.org/2000/svg"
   xmlns:svg="http://www.w3.org/2000/svg"><defs
     id="defs1"><filter
       style="color-interpolation-filters:sRGB"
       id="filter2"
       x="0"
       y="0"
       width="1"
       height="1"><feColorMatrix
         type="hueRotate"
         values="180"
         result="color1"
         id="feColorMatrix1" /><feColorMatrix
         values="-1 0 0 0 1 0 -1 0 0 1 0 0 -1 0 1 -0.21 -0.72 -0.07 2 0 "
         result="color2"
         id="feColorMatrix2" /></filter><filter
       style="color-interpolation-filters:sRGB"
       id="filter4"
       x="0"
       y="0"
       width="1"
       height="1"><feColorMatrix
         type="hueRotate"
         values="180"
         result="color1"
         id="feColorMatrix3" /><feColorMatrix
         values="-1 0 0 0 1 0 -1 0 0 1 0 0 -1 0 1 -0.21 -0.72 -0.07 2 0 "
         result="color2"
         id="feColorMatrix4" /></filter><filter
       style="color-interpolation-filters:sRGB"
       id="filter6"
       x="0"
       y="0"
       width="1"
       height="1"><feColorMatrix
         type="hueRotate"
         values="180"
         result="color1"
         id="feColorMatrix5" /><feColorMatrix
         values="-1 0 0 0 1 0 -1 0 0 1 0 0 -1 0 1 -0.21 -0.72 -0.07 2 0 "
         result="color2"
         id="feColorMatrix6" /></filter><filter
       style="color-interpolation-filters:sRGB"
       id="filter8"
       x="-0.0028891063"
       y="-0.058473796"
       width="1.0057782"
       height="1.1169476"><feColorMatrix
         type="hueRotate"
         values="180"
         result="color1"
         id="feColorMatrix7" /><feColorMatrix
         values="-1 0 0 0 1 0 -1 0 0 1 0 0 -1 0 1 -0.21 -0.72 -0.07 2 0 "
         result="color2"
         id="feColorMatrix8" /></filter></defs><g
     id="layer1"
     style="display:inline"
     transform="translate(-26.671304,-324.40915)"><text
       xml:space="preserve"
       style="font-size:85.3333px;text-align:start;writing-mode:lr-tb;direction:ltr;text-anchor:start;white-space:pre;inline-size:0;fill:#000000;stroke-width:0;stroke-linecap:round;stroke-linejoin:round;filter:url(#filter2)"
       x="357.66"
       y="331.02573"
       id="text1"
       transform="matrix(1.7235862,0,0,1.7235862,-586.55482,-146.24608)"><tspan
         id="tspan1"
         x="357.66"
         y="331.02573"
         style="font-style:normal;font-variant:normal;font-weight:normal;font-stretch:normal;font-size:85.3333px;font-family:'Eras Bold ITC';-inkscape-font-specification:'Eras Bold ITC'">JAKOB</tspan></text><path
       style="display:inline;fill:#000000;stroke-width:0;stroke-linecap:round;stroke-linejoin:round;filter:url(#filter4)"
       id="path7"
       d="m 679.55402,328.55256 1.97855,-60.49866 51.4041,31.96281 z"
       transform="matrix(1.6744462,0,0,1.626026,-326.30717,-109.98598)" /><path
       id="text2-8"
       style="font-size:85.3333px;text-align:start;letter-spacing:-5px;writing-mode:lr-tb;direction:ltr;text-anchor:start;display:inline;fill:#000000;stroke-width:0;stroke-linecap:round;stroke-linejoin:round;filter:url(#filter6)"
       d="m 610.07493,326.00773 c -7.42099,0 -13.40792,1.07725 -17.95628,3.23173 -4.50047,2.15449 -7.87582,5.02712 -10.12606,8.61793 -2.25023,3.5908 -3.37311,7.44605 -3.37311,11.56351 0,1.62782 0.1665,3.2306 0.5016,4.81056 0.33513,1.53207 0.78885,2.94557 1.36338,4.23827 0.62239,1.24481 1.48419,2.65496 2.58537,4.23489 1.10119,1.53209 2.4657,3.16104 4.09351,4.88464 1.62785,1.6757 3.44942,3.37646 5.46028,5.10006 l 5.31214,4.52441 c 5.31439,4.50047 9.40793,8.04228 12.28055,10.62767 2.92053,2.53749 4.95755,4.57116 6.10662,6.10322 1.19695,1.48421 2.05873,2.96955 2.58538,4.45374 0.52666,1.43632 0.78773,2.99345 0.78773,4.66916 0,2.87265 -0.78997,5.43185 -2.36993,7.68207 -1.53208,2.20237 -3.85301,3.92596 -6.96503,5.17077 -3.06415,1.19693 -6.39053,1.79765 -9.98133,1.79765 -3.73442,0 -7.63869,-0.4799 -11.70826,-1.43744 -4.0217,-1.00544 -8.56893,-2.7062 -13.64392,-5.10008 0.43088,3.35142 0.74097,7.3013 0.93246,11.84966 6.51133,1.77146 11.51565,2.89771 15.0107,3.37649 3.54292,0.52663 6.96729,0.79108 10.27082,0.79108 4.11746,0 8.06734,-0.43088 11.84966,-1.29268 3.78229,-0.8618 7.2033,-2.3243 10.26744,-4.38303 3.11204,-2.05873 5.48198,-4.68974 7.1098,-7.89753 1.67571,-3.25566 2.5147,-6.80084 2.5147,-10.63103 0,-2.48961 -0.35909,-4.78774 -1.07725,-6.89433 -0.71816,-2.1545 -1.72358,-4.13915 -3.01626,-5.9585 -1.2927,-1.86721 -3.0391,-3.87806 -5.24147,-6.03254 -2.15448,-2.1545 -5.62783,-5.19695 -10.41558,-9.1229 -4.73986,-3.92594 -7.46887,-6.17505 -8.18703,-6.74957 -2.87264,-2.44176 -5.12176,-4.50161 -6.74959,-6.17732 -1.62783,-1.7236 -2.99233,-3.421 -4.09351,-5.0967 -0.76605,-1.14906 -1.34057,-2.34711 -1.72359,-3.59192 -0.38303,-1.29269 -0.57565,-2.6082 -0.57565,-3.94877 0,-2.25023 0.71816,-4.43091 2.15448,-6.53752 1.43633,-2.15448 3.54517,-3.90088 6.32205,-5.24144 2.77689,-1.38845 6.22407,-2.08379 10.34153,-2.08379 5.98466,0 12.63737,1.29269 19.96262,3.87807 -0.57452,-4.4526 -0.90742,-8.20986 -1.00318,-11.274 -7.75613,-1.43633 -14.29141,-2.15449 -19.60579,-2.15449 z m 377.60679,0 c -7.6604,0 -15.00846,1.14905 -22.04643,3.44718 -6.99009,2.29811 -12.97702,5.8171 -17.95627,10.55696 -4.93137,4.73984 -8.66581,10.55697 -11.20331,17.45131 -2.5375,6.84646 -3.80401,14.00527 -3.80401,21.47413 0,6.79858 1.05106,13.23587 3.15766,19.31629 2.10661,6.03255 5.53097,11.30131 10.27084,15.80178 4.73986,4.4526 10.46232,7.75614 17.16516,9.91063 6.75072,2.15448 13.78868,3.23171 21.11393,3.23171 7.70826,0 15.05636,-1.17523 22.04641,-3.52123 6.9901,-2.39388 12.879,-5.95848 17.6667,-10.69835 4.7877,-4.73986 8.3296,-10.51132 10.6277,-17.30992 2.2981,-6.79859 3.4471,-13.8822 3.4471,-21.25532 0,-6.89435 -1.0282,-13.28597 -3.0869,-19.1749 -2.0587,-5.88891 -5.5287,-11.20331 -10.4122,-15.94318 -4.8356,-4.73985 -10.4373,-8.14138 -16.805,-10.20013 -6.3677,-2.05871 -13.09555,-3.08696 -20.18138,-3.08696 z m 87.61668,0 c -7.421,0 -13.4079,1.07725 -17.9563,3.23173 -4.5004,2.15449 -7.8757,5.02712 -10.1261,8.61793 -2.2502,3.5908 -3.3731,7.44605 -3.3731,11.56351 0,1.62782 0.1666,3.2306 0.5017,4.81056 0.3351,1.53207 0.7888,2.94557 1.3633,4.23827 0.6224,1.24481 1.4843,2.65496 2.5855,4.23489 1.1011,1.53209 2.4656,3.16104 4.0934,4.88464 1.6278,1.6757 3.4494,3.37646 5.4603,5.10006 l 5.3122,4.52441 c 5.3144,4.50047 9.4078,8.04228 12.2806,10.62767 2.9205,2.53749 4.9575,4.57116 6.1066,6.10322 1.1968,1.48421 2.0586,2.96955 2.5853,4.45374 0.5267,1.43632 0.7877,2.99345 0.7877,4.66916 0,2.87265 -0.7899,5.43185 -2.3699,7.68207 -1.5321,2.20237 -3.8531,3.92596 -6.9651,5.17077 -3.0641,1.19693 -6.3904,1.79765 -9.9812,1.79765 -3.7344,0 -7.6388,-0.4799 -11.7084,-1.43744 -4.0217,-1.00544 -8.5689,-2.7062 -13.6439,-5.10008 0.4309,3.35142 0.741,7.3013 0.9325,11.84966 6.5114,1.77146 11.5157,2.89771 15.0107,3.37649 3.543,0.52663 6.9673,0.79108 10.2708,0.79108 4.1174,0 8.0674,-0.43088 11.8497,-1.29268 3.7823,-0.8618 7.2033,-2.3243 10.2674,-4.38303 3.1121,-2.05873 5.482,-4.68974 7.1098,-7.89753 1.6758,-3.25566 2.5147,-6.80084 2.5147,-10.63103 0,-2.48961 -0.359,-4.78774 -1.0773,-6.89433 -0.7181,-2.1545 -1.7235,-4.13915 -3.0162,-5.9585 -1.2926,-1.86721 -3.0391,-3.87806 -5.2415,-6.03254 -2.1544,-2.1545 -5.6277,-5.19695 -10.4155,-9.1229 -4.7399,-3.92594 -7.4689,-6.17505 -8.187,-6.74957 -2.8727,-2.44176 -5.1218,-4.50161 -6.7496,-6.17732 -1.6278,-1.7236 -2.9923,-3.421 -4.0936,-5.0967 -0.766,-1.14906 -1.3405,-2.34711 -1.7235,-3.59192 -0.3831,-1.29269 -0.5757,-2.6082 -0.5757,-3.94877 0,-2.25023 0.7182,-4.43091 2.1545,-6.53752 1.4363,-2.15448 3.5452,-3.90088 6.3221,-5.24144 2.7768,-1.38845 6.2241,-2.08379 10.3415,-2.08379 5.9846,0 12.6374,1.29269 19.9625,3.87807 -0.5744,-4.4526 -0.9073,-8.20986 -1.003,-11.274 -7.7562,-1.43633 -14.2915,-2.15449 -19.6059,-2.15449 z m -440.30554,1.57883 c -0.0479,2.92053 -0.21432,6.29588 -0.50157,10.12607 8.80943,-0.38302 19.07913,-0.59846 30.8091,-0.64635 l -0.64634,21.04325 -1.93903,45.53027 -1.43746,21.97572 c 4.26108,-0.0956 6.70283,-0.14133 7.32523,-0.14133 l 6.89435,0.14133 v -11.99104 l 1.50813,-44.81324 1.50815,-31.81563 h 5.89117 c 9.00094,0 17.2108,0.21543 24.6318,0.64633 0,-2.48963 0.1665,-5.84218 0.50158,-10.05538 h -12.20649 l -22.98227,0.0741 c -14.07595,0 -27.19548,-0.0262 -39.35635,-0.0741 z m 77.9216,0 c 0,6.12832 -0.28727,14.98788 -0.8618,26.5742 -0.52666,11.58633 -0.98037,20.2499 -1.36339,25.99518 -0.33514,5.74528 -0.50495,10.84423 -0.50495,15.29683 0,4.16533 0.57453,7.97158 1.72358,11.41876 1.00543,3.06415 2.36993,5.60391 4.09352,7.61475 2.05873,2.48963 4.81393,4.71592 8.26109,6.67889 3.44717,1.96298 7.22726,3.42212 11.34471,4.37967 4.73985,1.10118 9.83881,1.65288 15.29682,1.65288 5.60165,0 11.01406,-0.50271 16.23268,-1.50813 3.63869,-0.76603 7.08587,-1.91509 10.34153,-3.44718 3.06415,-1.48419 5.67235,-3.18496 7.82683,-5.10005 1.81933,-1.57996 3.35028,-3.37537 4.5951,-5.38621 1.38845,-2.25024 2.44287,-4.64299 3.16103,-7.1805 0.95755,-3.5908 1.6529,-8.64411 2.08378,-15.15543 l 1.2927,-28.00828 2.08041,-33.82538 -6.67888,0.0741 -7.39594,-0.0741 c -0.14357,9.67123 -0.40807,18.76906 -0.7911,27.29124 l -1.29269,23.12366 c -0.52664,9.28821 -1.12398,15.80067 -1.79427,19.5351 -0.57452,2.96841 -1.53096,5.6256 -2.87153,7.97159 -1.43632,2.44174 -3.25791,4.5016 -5.46027,6.1773 -2.15446,1.67571 -4.78549,3.01404 -7.89753,4.01946 -3.73442,1.14906 -7.80513,1.72358 -12.20984,1.72358 -6.55922,0 -11.99443,-1.00542 -16.30338,-3.01628 -4.26109,-2.01084 -7.37199,-4.83448 -9.33497,-8.47316 -1.96298,-3.68657 -2.94559,-8.85732 -2.94559,-15.51227 v -1.3634 l 0.21545,-6.6789 3.23172,-54.79792 -6.96503,0.0741 z m 198.06767,0 0.0707,7.32524 c 0,1.96298 -0.0228,3.92819 -0.0707,5.89117 l -1.00656,33.89608 -1.50813,34.40102 -1.07725,16.51545 c 4.21322,-0.0956 6.75297,-0.14133 7.61475,-0.14133 l 6.7496,0.14133 c 0.33514,-19.48609 0.88686,-39.66642 1.65288,-60.54095 0.4309,-13.02266 1.07725,-25.51866 1.93905,-37.48801 l -6.96842,0.0741 z m 75.90848,7.97159 c 5.41014,0 10.53524,0.83897 15.37079,2.51469 4.8357,1.62783 9.001,4.26221 12.496,7.90088 3.543,3.63869 6.1022,8.0423 7.6821,13.21306 1.6279,5.12286 2.444,10.50907 2.444,16.15861 0,5.98467 -0.888,11.70715 -2.6594,17.16517 -1.7715,5.45802 -4.5005,10.12606 -8.1871,14.00414 -3.6386,3.83018 -7.9932,6.63101 -13.0682,8.40248 -5.02715,1.77147 -10.31865,2.65608 -15.87246,2.65608 -5.41016,0 -10.60372,-0.8128 -15.58298,-2.44063 -4.97925,-1.67571 -9.24257,-4.21547 -12.78551,-7.61475 -3.54292,-3.3993 -6.22294,-7.63644 -8.04227,-12.71146 -1.81935,-5.12288 -2.73014,-10.46008 -2.73014,-16.01385 0,-5.98468 0.91079,-11.72997 2.73014,-17.23587 1.86721,-5.5059 4.69086,-10.29477 8.47317,-14.36435 3.83019,-4.06957 8.30897,-7.01403 13.43186,-8.83338 5.12286,-1.86722 10.55472,-2.80082 16.3,-2.80082 z" /></g><g
     id="layer3"
     style="display:inline"
     transform="translate(-26.671304,-324.40915)"><text
       xml:space="preserve"
       style="font-style:normal;font-variant:normal;font-weight:normal;font-stretch:normal;font-size:53.3333px;font-family:'Eras Medium ITC';-inkscape-font-specification:'Eras Medium ITC';text-align:start;letter-spacing:0px;word-spacing:0px;writing-mode:lr-tb;direction:ltr;text-anchor:start;fill:#000000;stroke:#000000;stroke-width:4.31244;stroke-linecap:round;stroke-linejoin:round;stroke-dasharray:none;stroke-opacity:1;filter:url(#filter8)"
       x="156.76161"
       y="485.50439"
       id="text14"><tspan
         id="tspan14"
         x="156.76161"
         y="485.50439"
         style="font-style:normal;font-variant:normal;font-weight:normal;font-stretch:normal;font-family:'Eras Light ITC';-inkscape-font-specification:'Eras Light ITC'">Innovation. Perfektion. Produktion.</tspan></text></g></svg>
