<?xml version="1.0" encoding="UTF-8" standalone="no"?>
<!-- Created with Inkscape (http://www.inkscape.org/) -->

<svg
   width="283.51mm"
   height="27.196mm"
   version="1.1"
   viewBox="0 0 1071.5 102.79"
   xml:space="preserve"
   id="svg2"
   sodipodi:docname="JakobStudiosLogo.svg"
   inkscape:version="1.4 (86a8ad7, 2024-10-11)"
   xmlns:inkscape="http://www.inkscape.org/namespaces/inkscape"
   xmlns:sodipodi="http://sodipodi.sourceforge.net/DTD/sodipodi-0.dtd"
   xmlns="http://www.w3.org/2000/svg"
   xmlns:svg="http://www.w3.org/2000/svg"><defs
     id="defs2" /><sodipodi:namedview
     id="namedview2"
     pagecolor="#505050"
     bordercolor="#eeeeee"
     borderopacity="1"
     inkscape:showpageshadow="0"
     inkscape:pageopacity="0"
     inkscape:pagecheckerboard="0"
     inkscape:deskcolor="#505050"
     inkscape:document-units="mm"
     inkscape:zoom="0.58500263"
     inkscape:cx="303.41744"
     inkscape:cy="-118.80289"
     inkscape:window-width="1920"
     inkscape:window-height="991"
     inkscape:window-x="-9"
     inkscape:window-y="-9"
     inkscape:window-maximized="1"
     inkscape:current-layer="svg2" /><g
     transform="translate(-26.671 -324.41)"
     stroke-width="0"
     id="g2"
     style="fill:#ffffff;fill-opacity:1"><path
       style="font-size:85.333px;font-family:'Eras Bold ITC';white-space:pre;stroke-linecap:round;stroke-linejoin:round;fill:#ffffff;fill-opacity:1"
       d="m 356.74334,329.73406 q -0.375,-7.12497 -0.95833,-13.91661 4.70832,1.79166 7.5833,2.41666 2.91666,0.625 5.41665,0.625 2.79166,0 4.99998,-1 1.66666,-0.79166 2.62499,-2.04166 1.29166,-1.74999 1.74999,-4.08332 0.79167,-4.20831 1.20833,-14.62494 0.41667,-10.45829 0.41667,-18.08326 v -4.87498 q 6.66664,0.0833 8.87496,0.0833 2.74999,0 9.41663,-0.0833 l -1.24999,18.41659 q -0.45833,8.16664 -0.66667,17.37494 -0.16666,7.0833 -0.70833,9.70829 -0.5,2.37499 -1.41666,3.99999 -0.83333,1.54166 -2.08332,2.74998 -1.54166,1.45833 -3.70832,2.54166 -2.91666,1.5 -6.20831,2.24999 -3.62499,0.83333 -7.74997,0.83333 -7.62497,0 -17.5416,-2.29166 z m 41.66651,1.29167 3.45832,-5.99998 21.54158,-40.58318 2.29166,-4.54164 q 0.99999,-2 2.79165,-5.74998 7.33331,0.0833 10.70829,0.0833 5.87498,0 10.87496,-0.0833 l 6.08331,17.37493 12.37495,33.41654 2.41666,6.08331 q -7.20831,-0.0833 -8.74997,-0.0833 -3.49998,0 -10.29162,0.0833 -1.83333,-6.87498 -5.29165,-16.16661 h -20.99992 q -3.62498,7.33331 -7.49997,16.16661 -7.74997,-0.0833 -9.49996,-0.0833 -3.16665,0 -10.20829,0.0833 z m 32.24987,-28.29156 H 443.618 q -4.83331,-14.70828 -5.29164,-16.20827 -2.74999,6.12498 -4.66665,10.04163 z m 44.62483,28.29156 q 0.79166,-7.79164 1.12499,-12.91662 0.625,-9.0833 1.33333,-24.8749 0.5,-10.99996 0.5,-15.49994 v -3.58332 q 6.9583,0.0833 9.58329,0.0833 1.75,0 8.99997,-0.0833 l -1.95833,31.12488 -0.99999,25.7499 -9.04164,-0.0833 q -1.91665,0 -9.54162,0.0833 z m 20.87491,-29.99989 9.3333,-12.70828 7.54164,-10.58329 2.33332,-3.58332 q 7.74997,0.0833 10.49996,0.0833 0.75,0 9.9583,-0.0833 l -17.58327,22.20824 -3.29165,4.45832 3.08332,4.91665 17.4166,25.29157 -10.24996,-0.0833 q -3.33332,0 -11.29163,0.0833 -5.37497,-10.12496 -17.74993,-29.99989 z m 78.8747,-27.95822 q 6.66664,0 12.83328,1.79166 6.16664,1.79166 10.79162,5.74998 4.62499,3.91665 6.91664,9.04163 2.29166,5.12498 2.29166,11.79162 0,6.99997 -2.54166,12.87495 -2.49999,5.83331 -7.24997,9.91663 -4.74998,4.08331 -11.33329,5.99997 -6.5833,1.875 -13.70828,1.875 -7.04164,0 -13.49994,-1.83333 -6.45831,-1.87499 -11.24996,-5.99998 -4.74998,-4.16665 -6.74997,-9.24996 -2,-5.08331 -2,-11.29162 0,-9.12497 4.20832,-15.99994 4.24999,-6.91664 12.54162,-10.79163 8.3333,-3.87498 18.74993,-3.87498 z m -0.75,12.54162 q -4.79165,0 -8.66663,2.37499 -3.87499,2.33332 -5.95831,6.54164 -2.08333,4.16665 -2.08333,8.9583 0,4.41665 1.87499,8.0833 1.91666,3.66665 5.79165,5.74998 3.87498,2.04166 8.2083,2.04166 4.62498,0 8.4583,-2.29166 3.87498,-2.33333 5.87498,-6.49998 2.04166,-4.20831 2.04166,-8.79163 0,-4.45832 -1.875,-8.2083 -1.87499,-3.79165 -5.49998,-5.87498 -3.62498,-2.08332 -8.16663,-2.08332 z m 40.41651,45.41649 q 0.875,-9.16663 1.16666,-14.41661 0.41667,-7.16664 0.79167,-19.66659 0.41666,-12.49996 0.41666,-17.62494 0,-1.83332 -0.0417,-5.16664 5.54164,0.125 8.79163,0.125 4.54165,0 10.58329,-0.16667 6.04164,-0.20833 10.37496,-0.20833 5.20831,0 7.41664,0.29166 2.91665,0.375 5.08331,1.33333 2.20833,0.95833 3.66665,2.37499 1.625,1.66666 2.54166,3.99999 1.04166,2.66665 1.04166,5.70831 0,2.37499 -0.62499,4.54165 -0.58334,2.16666 -1.70833,3.87498 -1.08333,1.66666 -2.45833,2.79166 -1.37499,1.12499 -2.70832,1.74999 -1.29166,0.625 -3.49998,1.25 2.20832,0.375 3.54165,0.87499 1.33333,0.45834 2.83332,1.54166 1.54166,1.04167 2.74999,2.70833 1.20833,1.66666 1.79166,3.74998 0.625,2.04166 0.625,4.33332 0,3.16665 -1.04167,5.95831 -1.04166,2.79165 -2.91665,4.79165 -1.58333,1.70832 -4.12498,2.91665 -2.54166,1.20833 -5.20832,1.66666 -2.16666,0.33333 -7.91663,0.5 -5.70831,0.16667 -12.12496,0.16667 l -10.95829,-0.0417 z m 18.58326,-34.7082 h 5.91665 q 2.91665,0 4.12498,-0.125 1.25,-0.16667 2.41666,-0.54167 1.16666,-0.37499 1.99999,-1.24999 0.875,-0.875 1.20833,-1.95833 0.375,-1.08333 0.375,-2.16665 0,-1.54167 -0.75,-2.74999 -0.70833,-1.20833 -2.33332,-1.79166 -1.625,-0.58333 -4.95832,-0.58333 h -7.49997 z m -0.95833,23.29157 h 7.99997 q 3.16666,0 4.66665,-0.37499 1.83333,-0.45834 2.79166,-1.20833 0.95833,-0.75 1.49999,-2.04166 0.58333,-1.29166 0.58333,-2.87499 0,-1.375 -0.45833,-2.41666 -0.45833,-1.04166 -1.375,-1.74999 -0.91666,-0.70833 -2.24999,-1 -1.33332,-0.33333 -4.16665,-0.33333 h -8.79163 z"
       id="text1"
       transform="matrix(1.7236 0 0 1.7236 -586.55 -146.25)"
       aria-label="JAKOB" /><path
       transform="matrix(1.6744 0 0 1.626 -326.31 -109.99)"
       d="m679.55 328.55 1.9786-60.499 51.404 31.963z"
       id="path1"
       style="fill:#ffffff;fill-opacity:1" /><path
       d="m610.07 326.01c-7.421 0-13.408 1.0772-17.956 3.2317-4.5005 2.1545-7.8758 5.0271-10.126 8.6179-2.2502 3.5908-3.3731 7.446-3.3731 11.564 0 1.6278 0.1665 3.2306 0.5016 4.8106 0.33513 1.5321 0.78885 2.9456 1.3634 4.2383 0.62239 1.2448 1.4842 2.655 2.5854 4.2349 1.1012 1.5321 2.4657 3.161 4.0935 4.8846 1.6278 1.6757 3.4494 3.3765 5.4603 5.1001l5.3121 4.5244c5.3144 4.5005 9.4079 8.0423 12.281 10.628 2.9205 2.5375 4.9576 4.5712 6.1066 6.1032 1.197 1.4842 2.0587 2.9696 2.5854 4.4537 0.52666 1.4363 0.78773 2.9934 0.78773 4.6692 0 2.8726-0.78997 5.4318-2.3699 7.6821-1.5321 2.2024-3.853 3.926-6.965 5.1708-3.0642 1.1969-6.3905 1.7976-9.9813 1.7976-3.7344 0-7.6387-0.4799-11.708-1.4374-4.0217-1.0054-8.5689-2.7062-13.644-5.1001 0.43088 3.3514 0.74097 7.3013 0.93246 11.85 6.5113 1.7715 11.516 2.8977 15.011 3.3765 3.5429 0.52663 6.9673 0.79108 10.271 0.79108 4.1175 0 8.0673-0.43088 11.85-1.2927 3.7823-0.8618 7.2033-2.3243 10.267-4.383 3.112-2.0587 5.482-4.6897 7.1098-7.8975 1.6757-3.2557 2.5147-6.8008 2.5147-10.631 0-2.4896-0.35909-4.7877-1.0772-6.8943-0.71816-2.1545-1.7236-4.1392-3.0163-5.9585-1.2927-1.8672-3.0391-3.8781-5.2415-6.0325-2.1545-2.1545-5.6278-5.197-10.416-9.1229-4.7399-3.9259-7.4689-6.175-8.187-6.7496-2.8726-2.4418-5.1218-4.5016-6.7496-6.1773-1.6278-1.7236-2.9923-3.421-4.0935-5.0967-0.76605-1.1491-1.3406-2.3471-1.7236-3.5919-0.38303-1.2927-0.57565-2.6082-0.57565-3.9488 0-2.2502 0.71816-4.4309 2.1545-6.5375 1.4363-2.1545 3.5452-3.9009 6.322-5.2414 2.7769-1.3884 6.2241-2.0838 10.342-2.0838 5.9847 0 12.637 1.2927 19.963 3.8781-0.57452-4.4526-0.90742-8.2099-1.0032-11.274-7.7561-1.4363-14.291-2.1545-19.606-2.1545zm377.61 0c-7.6604 0-15.008 1.149-22.046 3.4472-6.9901 2.2981-12.977 5.8171-17.956 10.557-4.9314 4.7398-8.6658 10.557-11.203 17.451-2.5375 6.8465-3.804 14.005-3.804 21.474 0 6.7986 1.0511 13.236 3.1577 19.316 2.1066 6.0326 5.531 11.301 10.271 15.802 4.7399 4.4526 10.462 7.7561 17.165 9.9106 6.7507 2.1545 13.789 3.2317 21.114 3.2317 7.7083 0 15.056-1.1752 22.046-3.5212 6.9901-2.3939 12.879-5.9585 17.667-10.698 4.7877-4.7399 8.3296-10.511 10.628-17.31 2.2981-6.7986 3.4471-13.882 3.4471-21.255 0-6.8944-1.0282-13.286-3.0869-19.175-2.0587-5.8889-5.5287-11.203-10.412-15.943-4.8356-4.7398-10.437-8.1414-16.805-10.2-6.3677-2.0587-13.096-3.087-20.181-3.087zm87.617 0c-7.421 0-13.408 1.0772-17.956 3.2317-4.5004 2.1545-7.8757 5.0271-10.126 8.6179-2.2502 3.5908-3.3731 7.446-3.3731 11.564 0 1.6278 0.1666 3.2306 0.5017 4.8106 0.3351 1.5321 0.7888 2.9456 1.3633 4.2383 0.6224 1.2448 1.4843 2.655 2.5855 4.2349 1.1011 1.5321 2.4656 3.161 4.0934 4.8846 1.6278 1.6757 3.4494 3.3765 5.4603 5.1001l5.3122 4.5244c5.3144 4.5005 9.4078 8.0423 12.281 10.628 2.9205 2.5375 4.9575 4.5712 6.1066 6.1032 1.1968 1.4842 2.0586 2.9696 2.5853 4.4537 0.5267 1.4363 0.7877 2.9934 0.7877 4.6692 0 2.8726-0.7899 5.4318-2.3699 7.6821-1.5321 2.2024-3.8531 3.926-6.9651 5.1708-3.0641 1.1969-6.3904 1.7976-9.9812 1.7976-3.7344 0-7.6388-0.4799-11.708-1.4374-4.0217-1.0054-8.5689-2.7062-13.644-5.1001 0.4309 3.3514 0.741 7.3013 0.9325 11.85 6.5114 1.7715 11.516 2.8977 15.011 3.3765 3.543 0.52663 6.9673 0.79108 10.271 0.79108 4.1174 0 8.0674-0.43088 11.85-1.2927s7.2033-2.3243 10.267-4.383c3.1121-2.0587 5.482-4.6897 7.1098-7.8975 1.6758-3.2557 2.5147-6.8008 2.5147-10.631 0-2.4896-0.359-4.7877-1.0773-6.8943-0.7181-2.1545-1.7235-4.1392-3.0162-5.9585-1.2926-1.8672-3.0391-3.8781-5.2415-6.0325-2.1544-2.1545-5.6277-5.197-10.416-9.1229-4.7399-3.9259-7.4689-6.175-8.187-6.7496-2.8727-2.4418-5.1218-4.5016-6.7496-6.1773-1.6278-1.7236-2.9923-3.421-4.0936-5.0967-0.766-1.1491-1.3405-2.3471-1.7235-3.5919-0.3831-1.2927-0.5757-2.6082-0.5757-3.9488 0-2.2502 0.7182-4.4309 2.1545-6.5375 1.4363-2.1545 3.5452-3.9009 6.3221-5.2414 2.7768-1.3884 6.2241-2.0838 10.342-2.0838 5.9846 0 12.637 1.2927 19.962 3.8781-0.5744-4.4526-0.9073-8.2099-1.003-11.274-7.7562-1.4363-14.292-2.1545-19.606-2.1545zm-440.31 1.5788c-0.0479 2.9205-0.21432 6.2959-0.50157 10.126 8.8094-0.38302 19.079-0.59846 30.809-0.64635l-0.64634 21.043-1.939 45.53-1.4375 21.976c4.2611-0.0956 6.7028-0.14133 7.3252-0.14133l6.8944 0.14133v-11.991l1.5081-44.813 1.5082-31.816h5.8912c9.0009 0 17.211 0.21543 24.632 0.64633 0-2.4896 0.1665-5.8422 0.50158-10.055h-12.206l-22.982 0.0741c-14.076 0-27.195-0.0262-39.356-0.0741zm77.922 0c0 6.1283-0.28727 14.988-0.8618 26.574-0.52666 11.586-0.98037 20.25-1.3634 25.995-0.33514 5.7453-0.50495 10.844-0.50495 15.297 0 4.1653 0.57453 7.9716 1.7236 11.419 1.0054 3.0642 2.3699 5.6039 4.0935 7.6148 2.0587 2.4896 4.8139 4.7159 8.2611 6.6789 3.4472 1.963 7.2273 3.4221 11.345 4.3797 4.7398 1.1012 9.8388 1.6529 15.297 1.6529 5.6016 0 11.014-0.50271 16.233-1.5081 3.6387-0.76603 7.0859-1.9151 10.342-3.4472 3.0642-1.4842 5.6724-3.185 7.8268-5.1 1.8193-1.58 3.3503-3.3754 4.5951-5.3862 1.3884-2.2502 2.4429-4.643 3.161-7.1805 0.95755-3.5908 1.6529-8.6441 2.0838-15.155l1.2927-28.008 2.0804-33.825-6.6789 0.0741-7.3959-0.0741c-0.14357 9.6712-0.40807 18.769-0.7911 27.291l-1.2927 23.124c-0.52664 9.2882-1.124 15.801-1.7943 19.535-0.57452 2.9684-1.531 5.6256-2.8715 7.9716-1.4363 2.4417-3.2579 4.5016-5.4603 6.1773-2.1545 1.6757-4.7855 3.014-7.8975 4.0195-3.7344 1.1491-7.8051 1.7236-12.21 1.7236-6.5592 0-11.994-1.0054-16.303-3.0163-4.2611-2.0108-7.372-4.8345-9.335-8.4732-1.963-3.6866-2.9456-8.8573-2.9456-15.512v-1.3634l0.21545-6.6789 3.2317-54.798-6.965 0.0741zm198.07 0 0.0707 7.3252c0 1.963-0.0228 3.9282-0.0707 5.8912l-1.0066 33.896-1.5081 34.401-1.0772 16.515c4.2132-0.0956 6.753-0.14133 7.6148-0.14133l6.7496 0.14133c0.33514-19.486 0.88686-39.666 1.6529-60.541 0.4309-13.023 1.0772-25.519 1.939-37.488l-6.9684 0.0741zm75.908 7.9716c5.4101 0 10.535 0.83897 15.371 2.5147 4.8357 1.6278 9.001 4.2622 12.496 7.9009 3.543 3.6387 6.1022 8.0423 7.6821 13.213 1.6279 5.1229 2.444 10.509 2.444 16.159 0 5.9847-0.888 11.707-2.6594 17.165-1.7715 5.458-4.5005 10.126-8.1871 14.004-3.6386 3.8302-7.9932 6.631-13.068 8.4025-5.0272 1.7715-10.319 2.6561-15.872 2.6561-5.4102 0-10.604-0.8128-15.583-2.4406-4.9792-1.6757-9.2426-4.2155-12.786-7.6148-3.5429-3.3993-6.2229-7.6364-8.0423-12.711-1.8194-5.1229-2.7301-10.46-2.7301-16.014 0-5.9847 0.91079-11.73 2.7301-17.236 1.8672-5.5059 4.6909-10.295 8.4732-14.364 3.8302-4.0696 8.309-7.014 13.432-8.8334 5.1229-1.8672 10.555-2.8008 16.3-2.8008z"
       id="path2"
       style="fill:#ffffff;fill-opacity:1" /></g></svg>
